<?xml version="1.0" standalone="no"?><!DOCTYPE svg PUBLIC "-//W3C//DTD SVG 1.1//EN" "http://www.w3.org/Graphics/SVG/1.1/DTD/svg11.dtd"><svg t="1576123877683" class="icon" viewBox="0 0 1392 1024" version="1.1" xmlns="http://www.w3.org/2000/svg" p-id="13357" xmlns:xlink="http://www.w3.org/1999/xlink" width="174" height="128"><defs><style type="text/css"></style></defs><path d="M795.411572 402.649709 1196.621303 402.649709l0 69.422915L795.411572 472.072624 795.411572 402.649709 795.411572 402.649709z" p-id="13358" fill="#f1f7fa"></path><path d="M917.521664 912.913736l-3.503945-3.471946L125.598038 909.44179c-31.39151 0-55.823128-24.30362-55.823128-55.535132L69.77491 124.958048c0-31.231512 24.415619-59.007078 55.823128-59.007078l1123.342448 0c31.407509 0 55.823128 24.30362 55.823128 55.551132l0 437.353166 3.487946 3.471946c17.439728 10.415837 34.879455 24.30362 48.847237 41.647349l13.951782 17.359729L1371.050577 107.598319C1371.050577 48.591241 1322.203341 0 1262.908267 0L108.14231 0C48.847237 0 0 48.591241 0 107.598319l0 763.652068c0 59.007078 48.847237 107.598319 108.14231 107.598319L962.864955 978.848705l-10.463837-13.887783C938.449337 947.617193 927.9855 930.257465 917.521664 912.913736L917.521664 912.913736z" p-id="13359" fill="#f1f7fa"></path><path d="M795.411572 555.383322l118.606147 0 0 69.422915-118.606147 0L795.411572 555.383322 795.411572 555.383322z" p-id="13360" fill="#f1f7fa"></path><path d="M795.411572 253.388041 1196.621303 253.388041l0 69.422915L795.411572 322.810956 795.411572 253.388041 795.411572 253.388041z" p-id="13361" fill="#f1f7fa"></path><path d="M1161.725848 565.799159c-129.069983 0-230.252402 100.654427-230.252402 229.10042 0 124.958048 104.670365 229.10042 230.252402 229.10042C1290.811831 1023.984 1391.97825 923.313573 1391.97825 794.88358 1391.97825 666.453587 1287.307886 565.799159 1161.725848 565.799159L1161.725848 565.799159zM1158.237903 933.72941c-10.463837 10.415837-31.39151 10.415837-45.343292 0l-97.678474-97.182482c-10.463837-10.415837-10.463837-31.231512 0-41.647349s31.39151-10.415837 45.343292 0l76.750801 76.366807 150.013656-145.789722c10.463837-10.415837 31.39151-10.415837 45.343292 0 10.463837 10.415837 10.463837 31.247512 0 41.663349L1158.237903 933.72941 1158.237903 933.72941z" p-id="13362" fill="#f1f7fa"></path><path d="M563.335198 482.856455c37.823409-33.871471 61.647037-83.086702 61.647037-137.853846C624.998234 242.828206 542.167529 159.9975 439.993125 159.9975s-185.005109 82.830706-185.005109 185.005109c0 54.783144 23.807628 103.998375 61.647037 137.853846C214.764644 529.639724 143.99775 632.534117 143.99775 751.98825l73.998844 0c0-122.606084 99.390447-221.996531 221.996531-221.996531S661.989656 629.382166 661.989656 751.98825L735.9885 751.98825C735.9885 632.534117 665.221606 529.639724 563.335198 482.856455zM439.993125 233.996344c61.311042 0 111.006266 49.695224 111.006266 111.006266S501.304167 455.992875 439.993125 455.992875s-111.006266-49.695224-111.006266-111.006266S378.682083 233.996344 439.993125 233.996344z" p-id="13363" fill="#f1f7fa"></path></svg>