<?xml version="1.0" standalone="no"?><!DOCTYPE svg PUBLIC "-//W3C//DTD SVG 1.1//EN" "http://www.w3.org/Graphics/SVG/1.1/DTD/svg11.dtd"><svg t="1576115181579" class="icon" viewBox="0 0 1024 1024" version="1.1" xmlns="http://www.w3.org/2000/svg" p-id="9328" xmlns:xlink="http://www.w3.org/1999/xlink" width="128" height="128"><defs><style type="text/css"></style></defs><path d="M853.333333 210.887111l-186.225777 186.225778A311.608889 311.608889 0 0 1 739.555556 597.333333c0 172.8-140.088889 312.888889-312.888889 312.888889S113.777778 770.133333 113.777778 597.333333s140.088889-312.888889 312.888889-312.888889c76.145778 0 145.976889 27.221333 200.248889 72.448L813.084444 170.666667H625.777778a28.444444 28.444444 0 0 1 0-56.888889h256a28.444444 28.444444 0 0 1 28.444444 28.444444v256a28.444444 28.444444 0 0 1-56.888889 0V210.887111zM426.666667 853.333333a256 256 0 1 0 0-512 256 256 0 0 0 0 512z" p-id="9329" fill="#00aaff"></path></svg>