<?xml version="1.0" standalone="no"?><!DOCTYPE svg PUBLIC "-//W3C//DTD SVG 1.1//EN" "http://www.w3.org/Graphics/SVG/1.1/DTD/svg11.dtd"><svg t="1576067108810" class="icon" viewBox="0 0 1024 1024" version="1.1" xmlns="http://www.w3.org/2000/svg" p-id="1810" xmlns:xlink="http://www.w3.org/1999/xlink" width="128" height="128"><defs><style type="text/css"></style></defs><path d="M547.293 974.067V541.006l424.676-0.004c16.025-0.002 29.006-12.983 29.007-29.007 0-16.024-12.992-29.015-29.006-29.007l-424.677 0.003 0.001-433.067c0-15.944-12.933-28.877-28.877-28.877-15.954-0.01-28.896 12.933-28.886 28.886l-0.002 433.06-445.833 0.002C27.676 483 14.694 495.98 14.69 512c0 16.024 12.987 29.011 29.011 29.01l445.828-0.003v433.07c0 15.945 12.923 28.868 28.877 28.877 15.945 0 28.887-12.943 28.887-28.888z" p-id="1811" fill="#2c2c2c"></path></svg>