<?xml version="1.0" standalone="no"?><!DOCTYPE svg PUBLIC "-//W3C//DTD SVG 1.1//EN" "http://www.w3.org/Graphics/SVG/1.1/DTD/svg11.dtd"><svg t="1576110678437" class="icon" viewBox="0 0 1024 1024" version="1.1" xmlns="http://www.w3.org/2000/svg" p-id="6850" xmlns:xlink="http://www.w3.org/1999/xlink" width="128" height="128"><defs><style type="text/css"></style></defs><path d="M677.355173 398.134949C677.355173 412.771909 665.489237 424.637844 650.852278 424.637844L207.526585 424.637842C192.889625 424.637842 181.02369 412.771907 181.02369 398.134947L181.02369 398.134947C181.02369 383.497988 192.889625 371.632052 207.526585 371.632052L650.852278 371.632052C665.489237 371.632054 677.355173 383.496516 677.355173 398.134949L677.355173 398.134949 677.355173 398.134949ZM432.799714 230.292119C432.799714 244.929079 420.933779 256.795014 406.296819 256.795014L207.525111 256.795014C192.888152 256.795014 181.022217 244.929079 181.022217 230.292119L181.022217 230.292119C181.022217 215.655159 192.888152 203.789224 207.525111 203.789224L406.296819 203.789224C420.935251 203.789224 432.799714 215.653687 432.799714 230.292119L432.799714 230.292119 432.799714 230.292119ZM677.355173 565.977777C677.355173 580.614736 665.489237 592.480671 650.852278 592.480671L207.526585 592.480671C192.889625 592.480671 181.02369 580.614736 181.02369 565.977777L181.02369 565.977777C181.02369 551.340818 192.889625 539.474883 207.526585 539.474883L650.852278 539.474883C665.489237 539.474884 677.355173 551.340818 677.355173 565.977777L677.355173 565.977777 677.355173 565.977777ZM988.045659 761.707543 956.167094 729.828978 956.167094 684.74314C956.167094 670.10618 944.301158 658.240245 929.664199 658.240245L884.578355 658.240245 852.69979 626.36168C842.35041 616.010826 825.569661 616.010826 815.220281 626.36168L783.341716 658.240245 738.255878 658.240245C723.618918 658.240245 711.752983 670.10618 711.752983 684.74314L711.752983 729.828978 679.874418 761.707543C669.523564 772.056923 669.523564 788.837672 679.874418 799.187052L711.752983 831.065617 711.752983 876.151461C711.752983 890.78842 723.618918 902.654356 738.255878 902.654356L783.341716 902.654356 815.220281 934.532921C825.569661 944.883775 842.35041 944.883775 852.69979 934.532921L884.578355 902.654356 929.664199 902.654356C944.301158 902.654356 956.167094 890.78842 956.167094 876.151461L956.167094 831.065617 988.045659 799.187052C998.39798 788.836198 998.39798 772.056923 988.045659 761.707543L988.045659 761.707543ZM833.959299 836.397119C803.059871 836.397119 778.008747 811.345988 778.008747 780.446561 778.008747 749.547127 803.059871 724.496003 833.959299 724.496003 864.858732 724.496003 889.909857 749.547127 889.909857 780.446561 889.909857 811.345988 864.858732 836.397119 833.959299 836.397119L833.959299 836.397119ZM837.752161 6.13211 84.670946 6.13211C55.397027 6.13211 31.665158 29.863979 31.665158 59.137899L31.665158 893.931952C31.665158 923.205877 55.397027 946.937742 84.670946 946.937742L620.575664 946.937742 620.575664 946.783141C621.507686 946.881792 622.450011 946.937742 623.408532 946.937742L644.021891 946.937742C658.65885 946.937742 670.524786 935.071807 670.524786 920.434847 670.524786 905.797888 658.65885 893.931952 644.021891 893.931952L623.408532 893.931952C622.451479 893.931952 621.507686 893.987903 620.575664 894.086554L620.575664 893.931952 84.670946 893.931952 84.670946 59.137899 837.752161 59.137899 837.752161 475.062543 837.752161 533.953447 837.752161 569.295057C837.752161 583.932018 849.618096 595.797953 864.255056 595.797953 878.892015 595.797953 890.757951 583.932018 890.757951 569.295057L890.757951 533.953447 890.757951 475.062543 890.757951 59.137899C890.757951 29.863981 867.026079 6.13211 837.752161 6.13211L837.752161 6.13211Z" p-id="6851" fill="#00aaff"></path><path d="M910.523221 884.873853C910.523221 870.236894 898.657286 858.370958 884.020326 858.370958L786.843045 858.370958C772.206086 858.370958 760.34015 870.236894 760.34015 884.873853L760.34015 990.885433C760.34015 1005.522392 772.206086 1017.388328 786.843045 1015.915941L834.451081 970.272068 884.020326 1015.915941C898.657286 1017.388322 910.523221 1005.522392 910.523221 990.885433L910.523221 884.873853 910.523221 884.873853Z" p-id="6852" fill="#00aaff"></path></svg>